# xmcd
#
# Track frame offsets: 
#        150
#        18617
#        27798
#        38624
#        49519
#        65068
#        78014
#        89935
#        114875
#        128392
#        144258
#        149755
#        163915
#        174004
#        189554
#        213484
#        230046
#        252823
#        270315
#        284598
#        299110
#        323516
#        339518
#
# Disc length: 4786 seconds
#
# Revision: 0
# Processed by: cddbd v1.5.1PL0 Copyright (c) Steve Scherf et al.
# Submitted via: ExactAudioCopy v0.95a4
#
DISCID=4f12b017
DTITLE=Bottle Rockets - Beachland Ballroom 11-5-03
DYEAR=1900
DGENRE=Alternative
TTITLE0=Pretty Little Angie
TTITLE1=Gas Girl
TTITLE2=Kit Kat Clock
TTITLE3=Baby's Not My Baby Tonight
TTITLE4=Lonely Cowboy
TTITLE5=Lucky Break
TTITLE6=Man of Constant Anxiety
TTITLE7=Baggage Claim
TTITLE8=I Wanna Come Home
TTITLE9=Alone in Bad Company
TTITLE10=Band Intros
TTITLE11=Get Down River
TTITLE12=Blue Sky
TTITLE13=Indianapolis
TTITLE14=Cartoon Wisdom
TTITLE15=When I Was Dumb
TTITLE16=Love Like a Truck
TTITLE17=Kerosene
TTITLE18=Poor Rich Man
TTITLE19=Waitin' for a Train
TTITLE20=Time for a Change
TTITLE21=I'll Be Around
TTITLE22=Radar Gun
EXTD=
EXTT0=
EXTT1=
EXTT2=
EXTT3=
EXTT4=
EXTT5=
EXTT6=
EXTT7=
EXTT8=
EXTT9=
EXTT10=
EXTT11=
EXTT12=
EXTT13=
EXTT14=
EXTT15=
EXTT16=
EXTT17=
EXTT18=
EXTT19=
EXTT20=
EXTT21=
EXTT22=
PLAYORDER=
